<svg width="442" height="125" viewBox="0 0 442 125" fill="none" xmlns="http://www.w3.org/2000/svg">
<g clip-path="url(#clip0_2043_11)">
<path d="M25.8704 122.657C20.5277 122.657 15.5022 121.348 11.0361 118.63C2.08706 111.984 -0.751252 101.302 2.62968 87.5692C6.4447 72.2016 17.5725 54.5494 30.8876 39.3986C24.8854 38.4147 19.7597 36.13 16.3788 32.0943C13.5405 28.5004 13.2149 24.2479 15.3937 19.7785C20.3107 9.76418 36.9983 1.25908 40.9302 1.25908C41.5813 1.25908 42.1323 1.80107 42.1323 2.4598C42.1323 3.00179 41.5897 3.55212 40.9302 3.55212C38.0919 3.55212 22.0554 11.5069 17.4724 20.8792C15.6191 24.473 15.8362 27.7416 18.1235 30.6851C21.3959 34.4957 26.5216 36.5719 32.7408 37.2223C49.7623 18.3693 69.9477 3.55212 83.1542 1.47588C88.9393 0.608691 93.297 2.24301 95.8097 6.16202C98.7566 11.9405 94.7161 18.8029 84.6819 25.4486C71.7008 34.0621 50.0962 41.0329 33.8427 39.7238C20.2022 54.983 8.63187 72.8604 4.81684 88.1112C1.65296 101.077 4.1657 110.666 12.3467 116.662C16.3788 119.172 20.9618 120.255 25.7703 120.255C55.1217 120.255 97.1204 79.6061 120.144 46.4779C120.47 45.9359 121.238 45.8191 121.672 46.1527C122.214 46.5863 122.331 47.245 121.997 47.787C98.1054 82.2243 56.207 122.657 25.8788 122.657H25.8704ZM35.9047 37.5475C51.073 38.1979 71.0329 31.6607 83.3629 23.5975C92.2034 17.7106 96.0184 11.7154 93.7311 7.36274C91.8778 4.20251 88.3884 3.00179 83.5883 3.76892C71.2583 5.72843 52.2751 19.6785 35.913 37.5559L35.9047 37.5475Z" fill="#A98417" stroke="#A98417" stroke-width="3" stroke-miterlimit="10"/>
<path d="M202.297 47.5786C197.822 49.1045 193.79 49.8633 190.292 49.8633C184.182 49.8633 178.622 47.2451 176.543 41.1414L148.177 77.8634C147.96 78.1886 147.634 78.4054 147.3 78.4054C147.083 78.4054 146.866 78.297 146.649 78.1886C146.106 77.8634 145.99 77.0963 146.323 76.6627L164.213 45.9276C153.845 58.4601 139.445 74.3697 133.994 71.8682C132.683 71.3262 131.815 70.3423 131.372 68.9247C130.387 65.7645 131.698 61.0784 133.334 56.8258C126.021 65.7645 114.459 78.5138 108.457 79.1642C108.24 79.1642 108.132 79.2726 107.914 79.2726C107.046 79.2726 106.278 78.9474 105.627 78.3971C102.355 75.2369 105.519 67.4989 107.697 63.1379C112.606 53.4405 123.408 39.8156 130.938 41.1247C133.994 41.5583 135.955 44.1766 136.832 48.8627C137.266 48.204 137.708 47.662 138.142 47.2284C138.468 46.6864 139.128 46.578 139.67 46.9032C140.213 47.3368 140.33 47.9955 139.996 48.5375C137.708 52.3481 132.14 63.5799 133.559 68.1493C133.885 68.9164 134.327 69.4584 134.979 69.7836C139.562 71.8515 159.856 48.4208 172.728 31.1021C172.8 31.1021 172.873 31.0659 172.945 30.9937C173.162 30.8853 173.162 30.7769 173.271 30.7769H173.488C173.488 30.6685 173.596 30.6685 173.705 30.6685H173.922C173.994 30.7407 174.067 30.7769 174.139 30.7769C174.428 30.9937 174.609 31.1382 174.682 31.2105C174.754 31.2827 174.79 31.355 174.79 31.4272V32.0776C174.79 32.0776 174.79 32.186 174.682 32.4028L157.226 62.3708L176.101 37.8478C176.426 37.5226 176.869 37.3058 177.411 37.5226C177.845 37.631 178.179 37.9562 178.179 38.5065C178.939 44.6102 184.724 47.5536 190.292 47.5536C193.456 47.5536 197.163 46.8949 201.529 45.3773C202.18 45.1605 202.839 45.4857 203.056 46.0277C203.273 46.6781 202.948 47.3368 202.297 47.5536V47.5786ZM134.979 51.2808C134.87 51.1724 134.87 51.064 134.87 51.064C134.436 47.7954 133.342 43.8764 130.613 43.3261C122.54 43.3261 113.048 57.8181 109.776 64.1385C105.961 71.6597 105.961 75.5787 107.155 76.6711C107.263 76.7795 107.589 76.9963 108.248 76.8879C113.816 76.2291 127.34 60.7615 134.979 51.2808Z" fill="#A98417" stroke="#A98417" stroke-width="3" stroke-miterlimit="10"/>
<path d="M240.914 20.3289C237.859 25.557 232.625 27.4165 226.08 27.4165C223.024 27.4165 219.752 26.9829 216.263 26.3241C213.207 31.4439 210.26 36.3468 207.422 41.033C187.02 74.8116 172.294 99.2262 174.69 105.655C174.907 106.197 175.341 106.639 176 106.856C176.66 107.073 176.985 107.623 176.768 108.273C176.66 108.815 176.226 109.14 175.675 109.14C175.566 109.14 175.458 109.032 175.349 109.032C174.039 108.598 173.062 107.723 172.511 106.414C169.673 99.0011 183.205 76.7711 205.46 39.8322C208.082 35.3629 210.92 30.6767 213.858 25.8822C207.639 24.4647 200.877 22.3968 194.332 20.2121C177.311 14.8756 159.855 9.31393 153.745 17.8107C153.419 18.3527 152.651 18.4694 152.108 18.0275C151.566 17.7023 151.457 16.9352 151.891 16.5016C158.87 6.58729 176.443 12.1406 194.984 18.0275C201.854 20.2038 208.733 22.3884 215.06 23.806C219.093 17.1603 223.241 10.0727 227.499 2.77667C227.825 2.23468 228.593 2.12628 229.135 2.45148C229.678 2.77667 229.895 3.4354 229.569 3.97739C225.42 11.065 221.388 17.819 217.456 24.2479C227.165 25.9906 235.238 25.4486 238.952 19.2365C239.278 18.6946 240.046 18.4778 240.589 18.803C241.131 19.1281 241.24 19.7869 240.914 20.3289Z" fill="#A98417" stroke="#A98417" stroke-width="3" stroke-miterlimit="10"/>
<path d="M265.682 48.6625C263.395 51.3891 243.427 75.145 235.246 71.5512C233.935 71.0092 233.067 69.9169 232.624 68.4994C231.639 65.4475 232.842 60.7614 234.586 56.5088C227.165 65.4475 215.603 78.1968 209.709 78.8472H209.167C208.182 78.8472 207.422 78.6304 206.871 78.0885C203.49 74.9282 206.762 67.0818 208.941 62.8293C213.85 53.1318 224.652 39.3986 232.182 40.7077C235.129 41.2497 237.091 43.8679 238.076 48.5541C238.51 47.9037 238.944 47.3533 239.278 46.9198C239.712 46.3778 240.371 46.2694 240.914 46.5946C241.348 46.9198 241.565 47.6869 241.24 48.1205C238.952 52.0478 233.276 63.1628 234.803 67.849C235.02 68.6078 235.463 69.1581 236.114 69.4833C241.131 71.6596 255.757 56.9508 263.938 47.1449C264.263 46.7113 265.031 46.6029 265.574 47.0365C266.008 47.4701 266.117 48.1288 265.682 48.6708V48.6625ZM236.114 50.9472V50.622C235.68 47.4617 234.586 43.5344 231.748 42.9924H231.088C225.637 42.9924 216.146 53.6738 211.012 63.8049C207.197 71.3261 207.197 75.2451 208.39 76.3374C208.499 76.4458 208.716 76.6626 209.375 76.5542C215.052 75.9038 228.576 60.3195 236.106 50.9472H236.114Z" fill="#A98417" stroke="#A98417" stroke-width="3" stroke-miterlimit="10"/>
<path d="M310.745 48.771C300.485 57.7097 286.962 65.4476 272.996 72.8521C263.938 91.0547 249.972 115.027 237.099 120.689C232.191 122.865 228.15 123.741 224.878 123.741C220.186 123.741 217.022 121.89 215.495 119.488C212.331 114.369 215.169 106.847 222.916 100.202C232.408 91.7051 247.242 83.8587 262.953 75.5704C265.683 74.1529 268.513 72.7354 271.242 71.2094C273.864 66.0897 275.934 61.4036 277.57 57.8097C271.351 64.889 260.983 75.462 255.097 76.004C253.787 76.1124 252.693 75.7872 251.934 75.1368C249.421 72.7353 249.972 67.6156 253.353 61.0784C257.393 53.0152 266.334 42.2254 273.213 43.4261C276.485 43.9681 278.555 46.9115 279.54 52.0313C280.083 51.4893 280.525 50.9389 280.851 50.5053C281.177 50.0718 281.836 49.9634 282.379 50.1802C282.813 50.5053 283.03 51.1641 282.813 51.5977C282.487 52.4732 279.432 59.7692 274.849 69.3583C287.613 62.4959 299.834 55.1915 309.217 47.0199C309.76 46.6947 310.42 46.6947 310.854 47.1283C311.288 47.6703 311.179 48.329 310.745 48.7626V48.771ZM269.398 74.8116C267.653 75.7955 265.908 76.6627 264.055 77.6466C248.453 85.8182 233.727 93.5562 224.452 101.945C216.705 108.59 215.395 114.911 217.473 118.288C218.567 120.03 221.071 121.448 224.895 121.448C227.841 121.448 231.548 120.572 236.131 118.613C247.693 113.493 260.574 92.2387 269.406 74.8033L269.398 74.8116ZM277.579 54.3243C277.145 50.7305 275.942 46.2611 272.887 45.7108C265.683 45.7108 258.27 56.5006 255.431 62.1623C252.702 67.4989 251.942 71.9682 253.47 73.3857C253.795 73.7109 254.238 73.8193 254.889 73.7109C260.123 73.1689 271.142 61.7204 277.579 54.316V54.3243Z" fill="#A98417" stroke="#A98417" stroke-width="3" stroke-miterlimit="10"/>
<path d="M347.952 49.3213C344.462 53.1319 316.096 83.5418 302.564 83.5418C300.928 83.5418 299.617 83.2166 298.532 82.3411C291.327 75.5871 297.764 59.2356 305.402 50.8472C306.27 49.8633 307.255 48.8877 308.132 48.1206H308.24C313.149 43.9848 318.058 43.326 321.656 46.4863C322.966 48.0122 323.4 49.7549 323.075 51.7144C322.424 55.4166 318.926 59.1272 315.879 60.7615C310.311 63.7049 307.698 61.8538 306.604 60.5447C305.402 59.0188 305.077 56.7341 305.402 54.441C298.749 63.0462 294.925 75.8039 300.059 80.5984C307.698 86.5937 335.956 58.9104 346.207 47.7954C346.641 47.2534 347.409 47.2534 347.843 47.687C348.277 48.1206 348.386 48.8877 347.952 49.3213ZM308.458 59.1272C309.877 60.8699 313.041 59.6692 314.785 58.6936C317.732 57.1677 320.353 53.899 320.787 51.2808C321.005 49.9717 320.787 48.9961 320.019 48.1206C316.747 45.2855 312.598 47.4702 309.76 49.8633C307.581 52.5899 306.921 57.2761 308.449 59.1272H308.458Z" fill="#A98417" stroke="#A98417" stroke-width="3" stroke-miterlimit="10"/>
<path d="M396.721 48.5541C394.208 51.064 372.061 73.4024 363.12 71.7681C361.918 71.5513 361.05 71.0009 360.499 70.0254C358.645 66.6483 361.267 59.6691 364.205 52.2647C365.624 48.3373 368.129 41.9085 367.369 40.9329C362.895 40.9329 343.043 63.93 331.581 78.5305C331.364 78.7473 331.039 78.964 330.713 78.964C330.496 78.964 330.279 78.8557 330.054 78.7473C329.511 78.4221 329.402 77.7633 329.728 77.2213L346.858 47.145C347.075 46.603 347.843 46.3862 348.386 46.7114C348.928 47.0366 349.145 47.6953 348.82 48.3457L338.677 66.1063C348.386 54.4493 362.46 38.5398 367.261 38.5398C368.129 38.5398 368.788 38.9734 369.331 39.6321C370.641 41.5916 369.114 45.8442 366.275 53.1486C363.98 59.0354 361.15 66.4399 362.46 68.8413C362.677 69.1665 362.895 69.3833 363.554 69.4917C370.207 70.8008 388.54 53.5822 395.084 46.9365C395.518 46.5029 396.286 46.5029 396.721 46.9365C397.155 47.3701 397.155 48.1372 396.721 48.5708V48.5541Z" fill="#A98417" stroke="#A98417" stroke-width="3" stroke-miterlimit="10"/>
<path d="M440.472 48.6625C438.177 51.3891 418.217 75.145 410.036 71.5512C408.725 71.0092 407.857 69.9169 407.414 68.4994C406.429 65.4475 407.631 60.7614 409.376 56.5088C401.955 65.4475 390.393 78.1968 384.499 78.8472H383.957C382.972 78.8472 382.212 78.6304 381.669 78.0885C378.288 74.9282 381.561 67.0818 383.74 62.8293C388.648 53.1318 399.45 39.3986 406.98 40.7077C409.927 41.2497 411.889 43.8679 412.874 48.5541C413.308 47.9037 413.751 47.3533 414.076 46.9198C414.51 46.3778 415.17 46.2694 415.712 46.5946C416.146 46.9198 416.372 47.6869 416.038 48.1205C413.751 52.0478 408.074 63.1628 409.602 67.849C409.819 68.6078 410.253 69.1581 410.912 69.4833C415.929 71.6596 430.547 56.9508 438.736 47.1449C439.062 46.7113 439.83 46.6029 440.372 47.0365C440.806 47.4701 440.915 48.1288 440.481 48.6708L440.472 48.6625ZM410.904 50.9472V50.622C410.47 47.4617 409.376 43.5344 406.538 42.9924H405.887C400.427 42.9924 390.944 53.6738 385.81 63.8049C381.995 71.3261 381.995 75.2451 383.189 76.3374C383.297 76.4458 383.514 76.6626 384.174 76.5542C389.85 75.9038 403.374 60.3195 410.904 50.9472Z" fill="#A98417" stroke="#A98417" stroke-width="3" stroke-miterlimit="10"/>
</g>
<defs>
<clipPath id="clip0_2043_11">
<rect width="442" height="125" fill="white"/>
</clipPath>
</defs>
</svg>
