<svg width="101" height="80" viewBox="0 0 101 80" fill="none" xmlns="http://www.w3.org/2000/svg">
<g clip-path="url(#clip0_2013_37027)">
<path d="M41.2126 5.11654C43.3382 5.64182 44.6681 7.10995 45.1429 9.23523C45.3803 10.299 45.4792 11.4176 45.4792 12.51C45.4902 23.0924 45.4924 33.6748 45.4946 44.2572C45.7935 43.7561 46.0859 43.255 46.3761 42.7583C46.7344 42.1407 47.108 41.5034 47.4839 40.8814C48.5456 39.1319 49.8447 37.3451 50.8822 35.6176C51.0933 35.2682 51.1218 34.9143 51.7439 34.5627V23.4858C51.7439 23.8242 51.8077 23.9979 51.8934 24.1803C52.7155 25.91 53.5464 27.5517 54.729 29.0242C54.7268 29.0286 54.6762 29.033 54.674 29.0374C54.7729 29.1605 54.8521 29.2836 54.9554 29.4045C55.4653 30.0045 56.0061 30.5759 56.6106 31.1078C56.8963 31.3583 57.1821 31.5935 57.481 31.8176C57.6019 31.91 57.7206 31.9979 57.8437 32.0858C59.4901 33.2528 61.2992 34.0506 63.2094 34.6308C63.3017 34.4001 63.3962 34.1715 63.4907 33.9429C61.6641 33.3957 59.9144 32.5539 58.268 31.3825C58.1559 31.3034 58.046 31.222 57.9339 31.1407C57.9229 31.1319 57.9119 31.1231 57.9009 31.1143C56.9425 30.3957 56.0918 29.6001 55.3357 28.7385C55.2323 28.622 55.1312 28.5034 55.0323 28.3847C55.0323 28.3847 55.0345 28.3803 55.0367 28.3781C53.3771 26.3825 52.1879 24.055 51.3351 21.5078C51.2735 21.3231 51.2581 21.1143 51.2581 20.9165C51.2537 15.6308 51.2537 10.3451 51.2559 5.0572C51.2559 4.91215 51.2779 4.7649 51.2977 4.51874C52.6232 4.51874 53.8739 4.50775 55.1246 4.51874C59.0571 4.5627 62.9962 4.48577 66.9198 4.69896C69.9906 4.86599 72.8922 5.64402 75.442 7.29896C76.4466 6.89237 77.5237 6.52973 78.6667 6.23303C74.71 4.33852 70.4698 3.7561 66.1241 3.75391C59.9078 3.74731 53.6915 3.75391 47.4751 3.75391C43.9669 3.75391 40.4565 3.75391 36.9482 3.7561C36.7548 3.7561 36.5636 3.78907 36.3262 3.81105C36.3547 4.07259 36.3789 4.28138 36.3855 4.33852C38.0649 4.59786 39.6717 4.72753 41.2148 5.10995L41.2126 5.11654ZM49.7898 17.633C49.7964 16.7781 49.803 15.9341 49.8095 15.1209C49.8205 14.3056 49.8293 13.5187 49.8403 12.7715C49.8535 12.0242 49.8667 11.3187 49.8799 10.666C49.9041 9.3627 49.9458 8.27479 49.9656 7.51435C49.9744 7.13413 49.9898 6.83523 49.9964 6.63083C50.0052 6.42643 50.0074 6.31874 50.0074 6.31874C50.0074 6.31874 50.0118 6.42643 50.0206 6.63083C50.0272 6.83523 50.0425 7.13413 50.0513 7.51435C50.0711 8.27479 50.1107 9.3605 50.1371 10.666C50.1481 11.3187 50.1612 12.0242 50.1766 12.7715C50.1854 13.5187 50.1964 14.3056 50.2074 15.1209C50.214 15.9363 50.2206 16.7781 50.2272 17.633C50.2294 18.488 50.2316 19.3583 50.236 20.2264C50.2338 21.0968 50.2316 21.9649 50.2294 22.8198C50.2294 23.6748 50.2162 24.5187 50.2096 25.3319C50.1942 26.9627 50.17 28.4836 50.1415 29.7869C50.1151 31.0902 50.0755 32.1781 50.0557 32.9385C50.0469 33.3187 50.0316 33.6176 50.025 33.822C50.0162 34.0264 50.0118 34.1341 50.0118 34.1341C50.0118 34.1341 50.0074 34.0242 50.0008 33.822C49.9942 33.6176 49.9788 33.3187 49.97 32.9385C49.9502 32.1781 49.9085 31.0924 49.8843 29.7869C49.8557 28.4836 49.8315 26.9627 49.8161 25.3319C49.8095 24.5165 49.7964 23.6748 49.7964 22.8198C49.7942 21.9649 49.7898 21.0946 49.7876 20.2264C49.7898 19.3561 49.7942 18.488 49.7964 17.633H49.7898Z" fill="url(#paint0_linear_2013_37027)"/>
<path d="M52.0429 75.1759C51.8957 75.1759 51.744 75.1561 51.744 75.1407V42.6968C48.6358 46.6572 46.9235 49.9737 46.2794 50.8572C46.0948 51.11 45.7936 51.3583 45.6068 51.6067C45.6068 56.7935 45.5475 61.9803 45.5475 67.1671C45.5475 67.5935 45.5167 68.0199 45.4947 68.444C45.3145 72.2704 43.5603 74.2836 39.7927 74.9319C38.786 75.1056 37.9023 75.0946 36.878 75.1759C36.7593 75.1847 36.6978 75.2286 36.6978 75.2528C36.6978 75.4814 36.6978 75.1188 36.6978 75.1188C37.3198 75.1188 37.0033 75.1188 37.2978 75.1188C46.7784 75.1188 56.259 75.5363 65.7373 75.5254C65.4252 75.2792 65.2362 75.2308 64.9438 74.9627C60.6047 74.9825 56.3799 75.1715 52.0408 75.1759H52.0429ZM50.4515 63.1144C50.4515 63.9935 50.4383 64.8572 50.4317 65.6946C50.4163 67.3693 50.3921 68.9319 50.3636 70.2704C50.3372 71.6111 50.2976 72.7253 50.2778 73.5078C50.2691 73.899 50.2537 74.2045 50.2471 74.4133C50.2383 74.622 50.2339 74.7341 50.2339 74.7341C50.2339 74.7341 50.2295 74.622 50.2207 74.4133C50.2141 74.2045 50.1987 73.8968 50.1899 73.5078C50.1701 72.7253 50.1284 71.6111 50.1042 70.2704C50.0756 68.9319 50.0514 67.3693 50.0361 65.6946C50.0295 64.8572 50.0163 63.9935 50.0163 63.1144C50.0141 62.2352 50.0119 61.3429 50.0097 60.4506C50.0119 59.5583 50.0141 58.6638 50.0185 57.7869C50.0251 56.9078 50.0317 56.0418 50.0382 55.2045C50.0492 54.3671 50.058 53.5583 50.069 52.7913C50.0822 52.0242 50.0954 51.299 50.1086 50.6286C50.135 49.2902 50.1745 48.1737 50.1943 47.3913C50.2031 47.0001 50.2185 46.6946 50.2251 46.4836C50.2339 46.2748 50.2383 46.1627 50.2383 46.1627C50.2383 46.1627 50.2427 46.2748 50.2515 46.4836C50.2581 46.6924 50.2734 47.0001 50.2822 47.3913C50.302 48.1715 50.3416 49.288 50.368 50.6286C50.379 51.299 50.3921 52.0242 50.4075 52.7913C50.4163 53.5583 50.4273 54.3671 50.4383 55.2045C50.4449 56.0418 50.4515 56.9078 50.4581 57.7869C50.4603 58.666 50.4625 59.5583 50.4647 60.4506C50.4625 61.3429 50.4603 62.2352 50.4581 63.1144H50.4515Z" fill="url(#paint1_linear_2013_37027)"/>
<path d="M88.0794 40.4682C84.4458 37.8726 80.298 36.6396 75.9544 35.9385C75.0224 35.7891 74.0838 35.6726 73.1496 35.5429C76.8733 34.7034 80.1045 33.033 82.8412 30.4418C85.8966 27.5473 87.8244 24.0682 87.7167 19.7693C87.62 15.866 86.3714 12.6792 84.1051 10.1715C84.0062 10.0594 83.9029 9.95172 83.7974 9.84183C83.1621 9.18249 82.4543 8.5715 81.6762 8.00886C81.5531 7.92095 81.4278 7.83304 81.3025 7.74732C81.2827 7.73414 81.2629 7.72095 81.2454 7.70776C79.977 8.04403 78.7637 8.48579 77.6206 9.03084C78.0515 9.44623 78.4449 9.88139 78.8054 10.3363C78.8999 10.455 78.9901 10.5781 79.0802 10.699C79.7045 11.5473 80.2144 12.4594 80.6233 13.422C80.6892 13.5803 80.753 13.7385 80.8145 13.899C81.2014 14.9078 81.4872 15.9671 81.6806 17.0726C82.2477 20.2924 82.3005 23.5188 81.2388 26.6528C79.5506 31.6374 75.8885 34.2748 70.769 34.6638C69.8788 34.7319 68.9973 34.7473 68.1269 34.71C67.984 35.0308 67.8433 35.3517 67.7026 35.6726C70.6723 36.255 73.653 36.7891 76.5985 37.4792C78.2119 37.8572 79.7836 38.5319 81.2871 39.2506C85.002 41.033 87.3782 43.9715 88.3915 47.9759C89.5169 52.4286 89.9236 56.9231 88.7586 61.4242C87.0946 67.8506 82.8588 71.8264 76.6359 73.8242C73.8486 74.7187 70.9691 75.1188 68.0543 75.1473C67.9906 75.1473 67.9268 75.1473 67.8653 75.1473C68.2104 75.4176 68.5687 75.6726 68.9424 75.9144C75.2994 75.7188 81.1464 73.7891 86.3956 70.1429C92.6955 65.7649 96.0696 59.899 94.9661 51.9891C94.2957 47.1891 92.0514 43.3034 88.0794 40.466V40.4682ZM78.0229 33.0352C78.2119 32.9363 78.4889 32.7891 78.8384 32.5957C79.533 32.2067 80.5024 31.6023 81.5289 30.7166C82.0411 30.2726 82.5598 29.7517 83.0566 29.1583C83.5512 28.5649 84.0172 27.8924 84.4305 27.1583C84.8459 26.4242 85.1844 25.6199 85.4658 24.7825C85.7427 23.9429 85.945 23.0638 86.0791 22.1737L86.1692 21.5056C86.189 21.2836 86.211 21.0594 86.2307 20.8374C86.2527 20.6155 86.2571 20.3847 86.2703 20.1605C86.2747 20.0506 86.2857 19.9297 86.2835 19.8286V19.4968C86.2813 18.6155 86.189 17.7473 85.9933 16.9297C85.8021 16.11 85.5383 15.3363 85.2262 14.6286C84.9118 13.9209 84.5536 13.2792 84.1887 12.7078C83.8216 12.1363 83.4545 11.633 83.105 11.2045C82.7555 10.7759 82.4302 10.4199 82.151 10.1341C81.8718 9.85062 81.6454 9.63304 81.4872 9.49018C81.3289 9.34732 81.2388 9.2748 81.2388 9.2748C81.2388 9.2748 81.3333 9.33853 81.5025 9.4704C81.6718 9.60227 81.918 9.79787 82.2125 10.0682C82.5071 10.3385 82.8566 10.6792 83.2325 11.0924C83.6106 11.5056 84.0128 11.9935 84.4063 12.5605C84.7997 13.1275 85.1932 13.7671 85.5339 14.4858C85.8746 15.2023 86.2483 15.9913 86.4549 16.8352C86.666 17.6792 86.8704 18.5759 86.8704 19.4902V19.833C86.8704 19.9561 86.7869 20.0616 86.7825 20.1781C86.7693 20.4045 86.7297 20.6286 86.7099 20.8594C86.6901 21.0902 86.6528 21.3209 86.6308 21.5517L86.5319 22.2374C86.3912 23.1495 86.1736 24.0528 85.8812 24.9166C85.5911 25.7803 85.213 26.6023 84.7756 27.3517C83.9007 28.855 82.7731 30.055 81.6916 30.9122C81.153 31.3451 80.6255 31.6946 80.1463 31.9825C79.6671 32.2704 79.2341 32.4946 78.8758 32.6726C78.5175 32.8506 78.2273 32.9715 78.0295 33.055C77.8317 33.1363 77.7261 33.1825 77.7261 33.1825C77.7261 33.1825 77.8273 33.1319 78.0185 33.033L78.0229 33.0352ZM94.3924 53.9583L94.377 54.4177L94.3704 54.6484C94.366 54.7363 94.3572 54.8023 94.3507 54.8814L94.3111 55.3319L94.2715 55.7825C94.2539 55.9341 94.232 56.0858 94.21 56.2374C94.0473 57.455 93.7879 58.6484 93.4186 59.7957C93.0581 60.9429 92.5877 62.0352 92.0536 63.0462C90.9853 65.077 89.6049 66.7407 88.2926 68.0023C87.6353 68.6374 86.9869 69.1649 86.3912 69.6045C85.7955 70.044 85.2548 70.3935 84.7975 70.6638C84.3425 70.9363 83.9688 71.1231 83.7139 71.2484C83.4589 71.3715 83.3182 71.4286 83.3182 71.4286C83.3182 71.4286 83.4545 71.3649 83.7029 71.2264C83.9513 71.0902 84.3074 70.877 84.7514 70.5891C85.1932 70.3012 85.7164 69.9297 86.2879 69.4704C86.8594 69.0089 87.4793 68.4594 88.1145 67.8198C88.7476 67.1803 89.3917 66.4418 90.0027 65.6133C90.6138 64.7847 91.1897 63.8594 91.7019 62.8616C92.2163 61.8638 92.6493 60.7847 93.0032 59.6638C93.3571 58.5429 93.6077 57.3627 93.7615 56.1825C93.7813 56.0352 93.8055 55.888 93.8231 55.7385L93.8649 55.288L93.9066 54.8374C93.9132 54.7649 93.922 54.6814 93.9242 54.6177L93.933 54.3957L93.9484 53.9517C93.9572 53.8045 93.9418 53.6572 93.9418 53.51L93.9286 53.0704C93.9132 52.9231 93.9 52.7781 93.8868 52.633C93.7681 51.4704 93.4956 50.3407 93.0889 49.299C92.6867 48.2572 92.1921 47.2858 91.6491 46.4111C91.1062 45.5341 90.5215 44.7517 89.9412 44.0594C88.7784 42.6792 87.6771 41.6396 86.8726 40.9561C86.4703 40.6155 86.1472 40.3517 85.9208 40.1803C85.6966 40.0067 85.5735 39.921 85.5735 39.921C85.5735 39.921 85.701 40.0001 85.9362 40.1605C86.1692 40.3209 86.5121 40.5605 86.9275 40.888C87.3452 41.2155 87.842 41.6264 88.3871 42.1231C88.9344 42.622 89.5301 43.2067 90.1324 43.8924C90.7369 44.5759 91.3502 45.3561 91.9239 46.2308C92.4976 47.1078 93.0362 48.0814 93.4582 49.1517C93.8846 50.2177 94.1924 51.3781 94.3177 52.5847C94.3331 52.7341 94.3485 52.8858 94.3638 53.0374L94.3814 53.4946C94.3836 53.6462 94.399 53.8001 94.3902 53.9539L94.3924 53.9583Z" fill="url(#paint2_linear_2013_37027)"/>
<path d="M91.8581 70.811C91.0667 70.6418 90.238 71.1824 89.9655 72.0967C89.8512 72.4769 89.805 72.8813 89.7742 73.2791C89.6709 74.633 89.2884 75.8461 88.2158 76.7714C87.3453 77.5231 86.3517 78.0505 85.2746 78.4066C81.1883 79.7604 77.0976 79.6417 73.0354 78.3253C71.5187 77.833 70.1075 77.189 68.8216 76.3736C68.5996 76.233 68.3798 76.0857 68.1665 75.9341C67.8214 75.6879 67.4873 75.4286 67.162 75.156C66.9905 75.011 66.8235 74.8637 66.6586 74.7121C65.7464 73.8703 64.9265 72.9055 64.2143 71.7978C62.2448 68.7341 61.504 65.3099 61.3391 61.7297C61.1545 57.7319 61.7106 53.8088 62.5283 49.9099C62.636 49.4 63.634 45.4417 64.0516 44.1253C64.9287 41.356 65.9354 38.6505 67.0609 36.0088C67.1202 35.8681 67.1818 35.7275 67.2433 35.5846C67.373 35.2835 67.5049 34.9846 67.639 34.6857C67.7049 34.5385 67.7687 34.3912 67.8368 34.2439C70.5713 28.1824 73.9476 22.4461 77.8779 16.9978C78.6583 15.9143 79.465 14.8549 80.3003 13.8198C79.8914 12.8066 79.3836 11.8791 78.7726 11.0352C72.543 17.8198 67.6082 25.3472 64.0956 33.6483C64.0362 33.789 63.9747 33.9297 63.9175 34.0703C63.823 34.3011 63.7263 34.5297 63.634 34.7604C63.5768 34.9011 63.5219 35.0396 63.4669 35.1802C61.693 39.6418 60.317 44.3209 59.3696 49.2242C57.8683 56.9934 58.8618 62.9472 60.029 66.6044C61.0446 69.789 62.658 72.5407 65.0078 74.7209C65.1705 74.8725 65.3397 75.0198 65.5112 75.167C65.8211 75.433 66.1443 75.6901 66.4806 75.9384C66.6894 76.0923 66.9004 76.2439 67.1202 76.389C67.3093 76.5143 67.4983 76.6417 67.6939 76.7626C73.275 80.2088 79.2583 80.8022 85.5054 79.0308C87.8465 78.367 89.9677 77.2461 91.68 75.4637C92.4208 74.6923 93.0517 73.8396 93.1726 72.7341C93.2781 71.7626 92.7329 71.0022 91.8581 70.8132V70.811ZM62.9921 71.0308C62.7855 70.622 62.4954 70.0132 62.1854 69.2154C61.8843 68.4132 61.5545 67.4242 61.2732 66.2615C60.9896 65.1011 60.7588 63.7692 60.6225 62.3033C60.3478 59.3736 60.4291 55.9165 60.961 52.2769C61.493 48.6374 62.4272 44.8154 63.645 41.0879C64.2671 39.2286 64.9441 37.3868 65.687 35.6088C65.8761 35.1648 66.0629 34.7231 66.2498 34.2813C66.3443 34.0615 66.4344 33.8417 66.5311 33.6242C66.6322 33.4088 66.7312 33.1934 66.8323 32.9802C67.2323 32.1231 67.6192 31.2725 68.0456 30.4593C68.2523 30.0505 68.4589 29.6439 68.6633 29.2417C68.8721 28.8417 69.0942 28.4527 69.3074 28.0659C69.5228 27.6813 69.7294 27.2945 69.9448 26.9209C70.1647 26.5494 70.3823 26.1824 70.5977 25.8198C71.455 24.3714 72.3232 23.0374 73.1409 21.8176C73.5542 21.211 73.9608 20.6352 74.3455 20.0901C74.7456 19.5538 75.1171 19.0396 75.4797 18.567C76.2073 17.622 76.8536 16.8088 77.4053 16.1516C77.5416 15.9868 77.6713 15.833 77.7944 15.6857C77.9197 15.5428 78.0362 15.4066 78.1461 15.2813C78.3637 15.0286 78.5527 14.822 78.7066 14.6505C79.0143 14.3121 79.1836 14.1363 79.1836 14.1363C79.1836 14.1363 79.0209 14.3165 78.7242 14.6681C78.5769 14.8439 78.3945 15.0593 78.1857 15.3165C77.9746 15.5736 77.735 15.8703 77.4713 16.2066C76.9393 16.8747 76.3128 17.7033 75.6138 18.6659C75.2643 19.1472 74.906 19.6703 74.5214 20.2132C74.1521 20.7692 73.7498 21.345 73.3498 21.956C72.554 23.1846 71.7099 24.5275 70.879 25.9846C70.6724 26.3494 70.4614 26.7165 70.2482 27.0901C70.0372 27.4659 69.8393 27.8527 69.6305 28.2396C69.4239 28.6286 69.2151 29.0198 69.004 29.4176C68.804 29.8198 68.6018 30.2242 68.3951 30.633C67.9753 31.4439 67.595 32.2923 67.2016 33.1472C67.1026 33.3604 67.0059 33.5758 66.9048 33.789C66.8081 34.0044 66.7202 34.2242 66.6278 34.4439C66.4454 34.8835 66.2608 35.3231 66.0761 35.767C65.3441 37.5428 64.6825 39.3758 64.0736 41.2286C62.8471 44.9275 61.8975 48.7209 61.3501 52.3341C61.082 54.1406 60.8995 55.8967 60.8204 57.5692C60.7412 59.2396 60.7632 60.8242 60.8775 62.2813C60.9962 63.7363 61.1897 65.0637 61.4402 66.2242C61.6886 67.3846 61.992 68.378 62.2711 69.1846C62.5635 69.9868 62.8229 70.6066 63.0185 71.0198C63.2163 71.433 63.3219 71.6527 63.3219 71.6527C63.3219 71.6527 63.2075 71.4352 62.9965 71.0308H62.9921Z" fill="url(#paint3_linear_2013_37027)"/>
<path d="M99.7912 0.252703C99.6022 0.188966 99.4065 0.140615 99.2087 0.112043C97.1996 -0.18466 95.2477 0.136219 93.3353 0.727428C90.1018 1.72523 87.2882 3.49226 84.6482 5.5582C84.3317 5.80655 84.0174 5.90985 83.6107 5.93182C82.338 5.99996 81.1202 6.16259 79.9618 6.40215C79.7332 6.44831 79.5068 6.49886 79.2848 6.5516C78.0824 6.83512 76.946 7.19556 75.8799 7.61094C75.7106 7.67688 75.5436 7.74501 75.3765 7.81314C71.7298 9.32303 68.9579 11.4373 67.2324 13.0593C63.5307 16.5406 60.4555 20.5472 57.7628 24.8263C57.0286 25.9934 56.3033 27.167 55.5801 28.3428C56.3494 29.2307 57.1979 30.0263 58.1321 30.7318C58.5234 30.0879 58.8861 29.4857 59.2158 28.9362C61.7283 24.7472 64.3199 20.6131 67.4566 16.8483C70.1142 13.6593 73.097 10.8527 76.8229 8.92303C76.8229 8.92303 76.8229 8.92303 76.8251 8.92303C76.9701 8.84831 77.1152 8.77798 77.2625 8.70765C78.3857 8.16039 79.5442 7.72303 80.7378 7.38457C80.9334 7.32963 81.1268 7.27468 81.3225 7.22633C81.7731 7.11204 82.2281 7.00655 82.6897 6.91864C82.7359 6.90985 82.7886 6.92963 82.7886 6.92963C82.5248 7.18457 82.2633 7.43952 82.0039 7.69666C82.7798 8.26149 83.4832 8.87029 84.1141 9.52303C84.8988 8.72083 85.7099 7.94281 86.5518 7.19116C86.7958 6.97138 87.1695 6.82413 87.4992 6.78237C88.8731 6.60875 90.2579 6.52303 91.6295 6.34281C93.7969 6.0549 95.9489 5.66369 97.9799 4.80655C99.0878 4.33842 100.07 3.68127 100.695 2.61094C101.321 1.53402 100.976 0.6549 99.7934 0.259296L99.7912 0.252703ZM75.5348 8.96919C75.2226 9.18018 74.8314 9.42413 74.4027 9.72743C74.1895 9.88127 73.9631 10.0461 73.7235 10.2175C73.4861 10.3912 73.2421 10.5846 72.9849 10.7802C72.7255 10.9736 72.4662 11.189 72.2002 11.4131C72.0661 11.523 71.9298 11.6351 71.7891 11.7494C71.6529 11.8681 71.5166 11.989 71.3759 12.1098C71.0967 12.3538 70.811 12.6022 70.5296 12.8703C70.3867 13.0022 70.2439 13.1362 70.0966 13.2703C69.9515 13.4044 69.8108 13.5472 69.6635 13.6879C69.5185 13.8285 69.3734 13.9692 69.2261 14.1142C69.0832 14.2615 68.9382 14.4087 68.7931 14.556C68.648 14.7055 68.5029 14.8549 68.3556 15.0065C68.2128 15.1604 68.0677 15.3142 67.9226 15.4681C67.3401 16.0857 66.7752 16.734 66.2147 17.3912C65.9333 17.7186 65.6607 18.0527 65.386 18.3824C65.12 18.7186 64.8474 19.0483 64.588 19.3868C64.0693 20.0593 63.5593 20.7208 63.0867 21.378C62.6119 22.0329 62.1613 22.6725 61.7437 23.2857C61.3282 23.9011 60.9369 24.4835 60.5874 25.0285C59.8862 26.1186 59.3191 27.0395 58.941 27.6923C58.752 28.0197 58.6025 28.2769 58.5014 28.4527C58.4025 28.6307 58.3497 28.723 58.3497 28.723C58.3497 28.723 58.3937 28.6241 58.4794 28.4395C58.5673 28.2549 58.6926 27.9846 58.8641 27.6483C59.0356 27.3098 59.2488 26.9011 59.4994 26.4373C59.7499 25.9714 60.0379 25.4505 60.3698 24.8901C60.6973 24.3274 61.0644 23.7274 61.4645 23.0967C61.8667 22.4703 62.2954 21.8109 62.7636 21.145C62.9966 20.8109 63.2362 20.4725 63.4846 20.1362C63.7264 19.7956 63.9858 19.4571 64.2429 19.1186C64.5023 18.778 64.7727 18.4439 65.0409 18.1033C65.3156 17.7692 65.5882 17.4307 65.8696 17.0989C66.4367 16.4395 67.0126 15.789 67.6039 15.1692C67.7512 15.0131 67.8984 14.8593 68.0435 14.7055C68.1952 14.556 68.3447 14.4065 68.4919 14.2593C68.6414 14.112 68.7909 13.967 68.9382 13.8197C69.0898 13.6791 69.2393 13.5384 69.3866 13.3978C69.6811 13.1164 69.9801 12.8483 70.2768 12.5912C70.5692 12.3296 70.8659 12.0857 71.1539 11.8505C71.299 11.7318 71.4418 11.6153 71.5825 11.5011C71.7276 11.3912 71.8683 11.2813 72.009 11.1758C72.2881 10.9626 72.5585 10.756 72.8267 10.5736C73.0948 10.389 73.3454 10.2 73.5938 10.0417C73.8444 9.88127 74.0818 9.73182 74.306 9.58897C74.7544 9.30985 75.1589 9.08787 75.4864 8.89446C75.8205 8.71644 76.0887 8.58457 76.2689 8.49007C76.4492 8.39776 76.5459 8.34941 76.5459 8.34941C76.5459 8.34941 76.1766 8.57578 75.5304 8.96919H75.5348ZM99.9231 2.14721C99.3582 2.74281 98.6965 3.29666 97.9755 3.68347C96.2896 4.58457 94.4212 4.9516 92.5483 5.24611C91.4537 5.41974 90.348 5.53182 89.2467 5.66369C88.983 5.69446 88.717 5.69666 88.451 5.71204C91.2405 3.43732 94.1772 1.54501 97.7909 1.0527C98.3272 0.980175 98.8812 0.962593 99.4219 1.00215C100.187 1.0593 100.448 1.59336 99.9209 2.14941L99.9231 2.14721Z" fill="url(#paint4_linear_2013_37027)"/>
<path d="M45.4642 51.6704V51.6792C45.4642 51.666 49.2252 45.6067 51.6475 41.8441C51.797 41.5649 51.7794 41.2858 51.9552 41.0023C53.7951 38.0484 55.6767 34.8836 57.3187 32.1935C57.0066 31.9561 56.6681 31.71 56.3735 31.4484C55.802 30.9452 55.2349 30.3979 54.7095 29.8023C53.7445 31.3869 52.7774 32.9759 51.8234 34.5671C51.6475 34.8572 51.5178 35.1495 51.3683 35.4419C50.1638 37.3342 49.0581 39.2287 47.9129 41.1166C47.1062 42.4441 46.2533 43.8045 45.5015 45.1276C45.352 45.3693 44.4882 46.7034 44.1914 47.121C42.5692 49.4001 35.4648 58.9561 30.0442 62.8199C26.5316 65.3232 22.7134 67.1452 18.4227 67.8594C15.0485 68.4221 11.7315 68.31 8.5948 66.7847C4.86456 64.9715 2.66643 61.8814 1.52339 57.9913C0.270456 53.732 0.488072 49.4506 1.56736 45.2001C3.2819 38.455 6.84508 32.7781 11.7447 27.9034C12.8768 26.7759 15.5739 24.4001 17.4357 23.2133C21.144 20.8462 25.0523 19.0155 29.4309 18.3386C31.6115 18.0023 33.7898 17.9671 35.8979 18.7781C38.6148 19.8221 39.8501 21.9671 40.2348 24.7122C40.6217 27.4792 40.1315 30.1605 39.3313 32.7913C37.9531 37.3232 35.7967 41.477 33.0776 45.3474C32.8424 45.6836 32.6073 45.7957 32.183 45.7693C28.5913 45.5539 25.0413 45.699 21.6671 47.1539C19.8866 47.921 18.2446 48.8924 17.1807 50.5825C16.8686 51.0792 16.6202 51.6638 16.5169 52.2375C16.185 54.1166 17.383 55.6023 19.3811 55.8946C21.4451 56.1979 23.3179 55.5671 25.0962 54.6353C28.5165 52.8419 31.3631 50.332 33.8426 47.3979C33.8822 47.3539 33.9481 47.266 34.0382 47.143C34.9307 47.6089 35.5813 48.3495 35.9396 49.4375C36.1133 49.9671 36.3331 50.499 36.6254 50.9715C37.1046 51.7452 38.1356 51.9957 38.9093 51.6045C39.6743 51.2177 39.9864 50.3188 39.6237 49.4243C39.4918 49.099 39.3006 48.7869 39.0808 48.5144C38.296 47.5364 37.2761 46.8858 36.0913 46.4946C35.6517 46.3495 35.212 46.2309 34.768 46.1298C35.9089 44.5188 37.7465 41.8287 38.4521 40.51C40.2502 37.1517 41.5405 33.6001 42.0438 29.8023C42.3472 27.5232 42.3032 25.2594 41.5537 23.0506C40.4568 19.8133 38.1641 18.0023 34.8252 17.5056C31.7807 17.0506 28.8374 17.6155 25.9513 18.5473C22.5859 19.6353 19.4536 21.2001 16.5433 23.2133C16.4136 23.3034 15.3123 24.055 14.9364 24.3408C14.1561 24.9386 13.3999 25.5715 12.6767 26.2375C6.7044 31.732 2.49057 38.2858 0.696895 46.266C-0.202143 50.2704 -0.318644 54.2902 0.870548 58.2638C2.25098 62.8726 5.08438 66.1957 9.68508 67.8484C12.9427 69.0177 16.2949 69.0243 19.6668 68.5122C24.2829 67.8133 28.7627 66.0155 32.6556 63.488C37.5575 60.3056 41.7339 56.2792 45.4642 51.6682V51.6704ZM23.0651 54.3364C21.8715 54.8968 20.6186 55.2924 19.2624 55.0331C17.8138 54.7561 17.117 53.6111 17.5456 52.1891C17.9435 50.8638 18.8777 49.9517 19.9724 49.1935C21.9771 47.8045 24.2477 47.1232 26.6393 46.8199C28.3912 46.5979 30.1497 46.5276 32.0423 46.7386C29.409 49.8287 26.6987 52.6331 23.0651 54.3364ZM39.5753 56.8441C39.217 57.1957 38.8741 57.5408 38.5202 57.855C38.3466 58.0133 38.1751 58.1693 38.0059 58.3232C37.8322 58.4704 37.663 58.6155 37.4959 58.7561C37.3288 58.8968 37.1662 59.0353 37.0057 59.1715C36.8409 59.299 36.6804 59.4265 36.5221 59.5473C36.3639 59.6682 36.2122 59.7869 36.0627 59.9034C35.9132 60.0177 35.7594 60.1188 35.6165 60.2221C35.3241 60.4243 35.0604 60.6265 34.801 60.7913C34.5438 60.9583 34.3064 61.11 34.0932 61.2484C33.8822 61.3913 33.6843 61.5012 33.5107 61.6001C33.3392 61.699 33.1942 61.7825 33.0755 61.8507C32.8381 61.9869 32.7128 62.0572 32.7128 62.0572C32.7128 62.0572 32.8337 61.9781 33.0623 61.8287C33.1766 61.7539 33.3172 61.6616 33.4821 61.5539C33.647 61.4441 33.8382 61.3254 34.0426 61.1737C34.2493 61.0265 34.4779 60.8638 34.7285 60.688C34.979 60.5122 35.234 60.3012 35.5154 60.088C35.6539 59.9781 35.8011 59.8704 35.944 59.7517C36.0869 59.6309 36.2342 59.5056 36.3858 59.3781C36.5375 59.2506 36.6936 59.121 36.8518 58.9869C37.0057 58.8484 37.164 58.7056 37.3266 58.5605C37.4871 58.4155 37.652 58.266 37.819 58.1144C37.9817 57.9561 38.1466 57.7979 38.3136 57.6331C38.6543 57.3122 38.9884 56.9627 39.3357 56.6067C39.5116 56.4309 39.6809 56.2463 39.8523 56.055C40.0238 55.866 40.1974 55.6748 40.3733 55.4836C40.7096 55.0858 41.0701 54.6924 41.413 54.2704C42.112 53.4419 42.7868 52.5452 43.4704 51.6331C44.1453 50.7144 44.8069 49.7627 45.4554 48.8045C46.1082 47.8419 46.7303 46.866 47.3545 45.9078C47.981 44.9517 48.5965 44.0089 49.1922 43.099C49.7923 42.1891 50.3704 41.3122 50.9221 40.4792C51.4761 39.6484 51.9992 38.8638 52.4806 38.1386C52.7224 37.7759 52.9554 37.4309 53.1774 37.1012C53.395 36.7693 53.6017 36.4528 53.7929 36.1561C54.1798 35.5627 54.5161 35.0463 54.793 34.6199C55.3536 33.7715 55.6745 33.2858 55.6745 33.2858C55.6745 33.2858 55.3821 33.7869 54.8678 34.666C54.6084 35.1034 54.2963 35.6353 53.9336 36.2441C53.7533 36.5495 53.5621 36.8726 53.3599 37.2155C53.151 37.5517 52.929 37.9078 52.7004 38.277C52.2388 39.0155 51.7354 39.8155 51.2057 40.6616C50.6715 41.5056 50.1088 42.3957 49.5263 43.3166C48.9394 44.2353 48.3349 45.1847 47.7194 46.1495C47.0996 47.11 46.4775 48.0968 45.829 49.0594C45.174 50.0243 44.5036 50.9759 43.8199 51.899C43.4726 52.3561 43.1341 52.8133 42.7758 53.2484C42.6 53.466 42.4241 53.6858 42.2483 53.9012C42.068 54.1144 41.89 54.3232 41.7141 54.532C41.5405 54.743 41.3602 54.9452 41.18 55.1452C41.0019 55.3451 40.8239 55.543 40.648 55.7386C40.4656 55.9298 40.2875 56.1166 40.1095 56.3034C39.9336 56.4902 39.7578 56.6726 39.5753 56.8484V56.8441Z" fill="url(#paint5_linear_2013_37027)"/>
</g>
<defs>
<linearGradient id="paint0_linear_2013_37027" x1="66.4253" y1="32.7737" x2="46.3631" y2="-1.97621" gradientUnits="userSpaceOnUse">
<stop stop-color="#DCBE65"/>
<stop offset="1" stop-color="#C49648"/>
</linearGradient>
<linearGradient id="paint1_linear_2013_37027" x1="56.7514" y1="80.7144" x2="39.0384" y2="50.0307" gradientUnits="userSpaceOnUse">
<stop stop-color="#DCBE65"/>
<stop offset="1" stop-color="#C49648"/>
</linearGradient>
<linearGradient id="paint2_linear_2013_37027" x1="90.682" y1="67.8089" x2="61.9677" y2="18.0666" gradientUnits="userSpaceOnUse">
<stop stop-color="#DCBE65"/>
<stop offset="1" stop-color="#C49648"/>
</linearGradient>
<linearGradient id="paint3_linear_2013_37027" x1="90.8931" y1="76.4725" x2="59.5284" y2="22.1387" gradientUnits="userSpaceOnUse">
<stop stop-color="#DCBE65"/>
<stop offset="1" stop-color="#C49648"/>
</linearGradient>
<linearGradient id="paint4_linear_2013_37027" x1="80.1465" y1="18.0219" x2="74.4194" y2="8.1003" gradientUnits="userSpaceOnUse">
<stop stop-color="#DCBE65"/>
<stop offset="1" stop-color="#C49648"/>
</linearGradient>
<linearGradient id="paint5_linear_2013_37027" x1="37.7113" y1="60.6265" x2="16.1613" y2="23.294" gradientUnits="userSpaceOnUse">
<stop stop-color="#DCBE65"/>
<stop offset="1" stop-color="#C49648"/>
</linearGradient>
<clipPath id="clip0_2013_37027">
<rect width="101" height="80" fill="white"/>
</clipPath>
</defs>
</svg>
