<svg width="420" height="100" viewBox="0 0 420 100" fill="none" xmlns="http://www.w3.org/2000/svg">
<path d="M228.82 22.6186C229.025 22.7713 229.053 22.9518 228.897 23.1565C228.664 23.4897 228.286 23.9894 227.762 24.6592C227.235 25.3255 226.634 26.0716 225.954 26.8906C225.274 27.713 224.542 28.5598 223.761 29.4308C222.976 30.3019 222.189 31.0931 221.394 31.7976C220.599 32.5055 219.836 33.0885 219.104 33.5501C218.371 34.0116 217.736 34.2442 217.198 34.2442C216.914 34.2442 216.685 34.1921 216.504 34.0915C216.067 33.8589 215.8 33.5258 215.696 33.092C215.592 32.6548 215.606 32.155 215.734 31.5894C215.862 31.0237 216.067 30.4164 216.348 29.7605C216.629 29.1046 216.924 28.4592 217.233 27.8171C217.438 27.4077 217.636 26.9912 217.83 26.5678C218.024 26.1445 218.191 25.7419 218.33 25.3567C218.472 24.9715 218.566 24.6245 218.618 24.3191C218.67 24.0102 218.656 23.7673 218.58 23.5869C218.528 23.4585 218.413 23.3682 218.233 23.3162C217.899 23.2398 217.4 23.4272 216.73 23.8749C216.064 24.3226 215.3 24.9542 214.44 25.7593C213.579 26.5678 212.642 27.5118 211.629 28.5876C210.615 29.6668 209.588 30.8016 208.55 31.9954C207.513 33.1892 206.503 34.3864 205.528 35.5941C204.553 36.8018 203.654 37.9296 202.835 38.9811C202.731 39.0818 202.616 39.1338 202.488 39.1338C202.384 39.1338 202.307 39.1095 202.255 39.0575C202.051 38.9534 202.012 38.7868 202.141 38.5577C202.346 38.1725 202.71 37.4542 203.237 36.4027C203.761 35.3512 204.41 34.088 205.181 32.6096C205.951 31.1348 206.808 29.5176 207.759 27.7582C208.707 26.0022 209.685 24.2184 210.685 22.407C211.684 20.5989 212.687 18.8256 213.686 17.0939C214.686 15.3622 215.623 13.7902 216.497 12.3778C215.727 12.6866 214.905 12.9053 214.033 13.0337C213.162 13.1621 212.264 13.228 211.341 13.228C210.646 13.228 209.928 13.1898 209.185 13.1135C207.901 15.1922 206.607 17.323 205.299 19.5023C203.99 21.6851 202.731 23.8263 201.527 25.9293C200.319 28.0323 199.205 30.0486 198.178 31.9711C197.15 33.8971 196.272 35.6323 195.54 37.187C194.808 38.7382 194.263 40.0534 193.906 41.1327C193.548 42.212 193.444 42.9407 193.597 43.3259L193.635 43.4023L193.673 43.4405C193.954 43.5411 194.045 43.7111 193.944 43.9402C193.892 44.1449 193.763 44.249 193.559 44.249C193.534 44.249 193.514 44.2421 193.5 44.2282C193.486 44.2143 193.468 44.2074 193.441 44.2074C193.184 44.1553 192.979 43.9506 192.826 43.5931C192.622 43.0795 192.729 42.1877 193.153 40.9175C193.576 39.6474 194.19 38.1448 194.999 36.4131C195.807 34.6814 196.769 32.7901 197.886 30.7357C199.004 28.6847 200.163 26.613 201.37 24.5204C202.578 22.4278 203.782 20.3907 204.99 18.3988C206.194 16.4103 207.301 14.6196 208.301 13.0302C207.093 12.9018 205.896 12.7283 204.702 12.5097C203.508 12.291 202.321 12.0655 201.141 11.8364C199.677 11.5276 198.261 11.2603 196.887 11.0278C195.512 10.7953 194.249 10.6808 193.094 10.6808C192.094 10.6808 191.209 10.8023 190.439 11.0452C189.669 11.2881 189.068 11.7184 188.631 12.3361C188.478 12.5409 188.284 12.5687 188.055 12.4125C187.978 12.3604 187.926 12.2771 187.902 12.1626C187.878 12.0481 187.902 11.9371 187.978 11.8364C188.516 11.0938 189.217 10.5732 190.075 10.2783C190.935 9.98328 191.917 9.83405 193.017 9.83405C194.197 9.83405 195.488 9.95552 196.887 10.1984C198.285 10.4414 199.753 10.719 201.294 11.0244C202.526 11.2812 203.772 11.5171 205.028 11.7358C206.284 11.9544 207.53 12.1279 208.762 12.2563C209.533 11.0001 210.199 9.93469 210.764 9.06018C211.33 8.18913 211.712 7.57142 211.92 7.21398C212.073 7.00923 212.267 6.97105 212.496 7.09946C212.6 7.15151 212.656 7.2348 212.67 7.34932C212.684 7.46384 212.663 7.57489 212.611 7.67553C212.149 8.42164 211.674 9.17817 211.188 9.94511C210.699 10.7155 210.199 11.5102 209.685 12.3327C211.122 12.4368 212.489 12.3986 213.784 12.2181C215.078 12.0377 216.265 11.6525 217.344 11.0625C218.139 9.85487 218.84 8.88666 219.44 8.1579C220.044 7.42566 220.523 7.00923 220.884 6.90859C221.116 6.8843 221.293 6.90859 221.422 6.98493L221.498 7.02311L221.574 7.09946V7.13763L221.651 7.21398V7.36667C221.651 7.41872 221.637 7.44302 221.613 7.44302V7.51936C221.151 8.51881 220.599 9.36556 219.957 10.0596C219.315 10.7537 218.611 11.3159 217.84 11.7531C217.018 13.0094 216.102 14.512 215.088 16.2576C214.075 18.0031 212.996 19.8945 211.854 21.935C210.712 23.9755 209.539 26.1306 208.332 28.4002C207.124 30.6697 205.92 32.9601 204.712 35.2714C205.406 34.4246 206.163 33.5154 206.982 32.5402C207.801 31.5651 208.655 30.583 209.543 29.5939C210.428 28.6049 211.313 27.6645 212.198 26.7656C213.083 25.8668 213.915 25.0895 214.7 24.4371C215.481 23.7812 216.195 23.278 216.837 22.9171C217.479 22.5562 218.004 22.4312 218.416 22.5319C218.854 22.6603 219.149 22.8928 219.301 23.2259C219.43 23.4827 219.475 23.7847 219.437 24.1317C219.399 24.4787 219.315 24.8639 219.187 25.2873C219.058 25.7107 218.885 26.1653 218.666 26.6546C218.448 27.1439 218.212 27.6436 217.955 28.1572C217.698 28.6951 217.448 29.2469 217.205 29.8126C216.962 30.3782 216.768 30.8953 216.629 31.3707C216.487 31.8462 216.431 32.2626 216.456 32.62C216.48 32.981 216.622 33.2239 216.879 33.3523C217.188 33.505 217.597 33.4564 218.111 33.1996C218.625 32.9428 219.208 32.5506 219.864 32.0266C220.519 31.5026 221.217 30.8606 221.96 30.1006C222.702 29.3441 223.441 28.5494 224.174 27.713C224.906 26.8802 225.624 26.0265 226.329 25.152C227.033 24.2809 227.668 23.4585 228.234 22.688C228.387 22.4555 228.581 22.4312 228.81 22.6117L228.82 22.6186ZM219.544 9.26146C219.697 9.10876 219.853 8.91442 220.006 8.68539L219.544 9.26146Z" fill="#A98417" stroke="#A98417" stroke-width="2" stroke-miterlimit="10"/>
<path d="M241.716 23.271C241.793 23.3474 241.838 23.4445 241.852 23.559C241.866 23.6736 241.831 23.7707 241.755 23.8471C241.55 24.0796 241.12 24.5342 240.464 25.2144C239.811 25.8946 239.027 26.6823 238.114 27.5811C237.202 28.4799 236.188 29.4169 235.074 30.3921C233.957 31.3672 232.843 32.266 231.725 33.085C230.608 33.9075 229.525 34.5877 228.474 35.1256C227.422 35.6635 226.499 35.9341 225.701 35.9341C225.135 35.9341 224.674 35.7919 224.316 35.5108C223.674 34.9208 223.317 34.1435 223.237 33.1822C223.161 32.2209 223.268 31.2145 223.563 30.1596C223.858 29.1081 224.296 28.067 224.872 27.0432C225.448 26.016 226.072 25.1311 226.739 24.3884C227.228 23.8505 227.818 23.3439 228.509 22.8685C229.203 22.393 229.921 22.157 230.664 22.157C231.33 22.157 231.934 22.3896 232.472 22.8511C232.933 23.389 233.1 24.0067 232.971 24.6973C232.895 25.1346 232.708 25.5753 232.413 26.0264C232.118 26.4776 231.764 26.8801 231.354 27.2376C230.945 27.5985 230.494 27.8865 230.008 28.1051C229.518 28.3238 229.046 28.4314 228.585 28.4314C228.2 28.4314 227.898 28.3619 227.679 28.2197C227.46 28.0774 227.287 27.9455 227.159 27.8136C226.954 27.5325 226.818 27.2029 226.756 26.8315C226.694 26.4602 226.687 26.0681 226.735 25.6586C226.145 26.429 225.632 27.2619 225.194 28.1607C224.757 29.0595 224.438 29.9375 224.233 30.7981C224.028 31.6587 223.962 32.4534 224.039 33.1857C224.115 33.9179 224.386 34.487 224.847 34.9C225.128 35.1047 225.451 35.2089 225.809 35.2089C226.399 35.2089 227.11 34.9972 227.943 34.5738C228.776 34.1504 229.675 33.5986 230.636 32.9185C231.597 32.2383 232.579 31.4609 233.579 30.5899C234.578 29.7188 235.546 28.8443 236.483 27.9733C237.42 27.1022 238.291 26.2555 239.1 25.433C239.908 24.6105 240.582 23.9061 241.12 23.3161C241.196 23.2155 241.293 23.1634 241.408 23.1634C241.522 23.1634 241.619 23.2016 241.696 23.278L241.716 23.271ZM228.283 24.0414C227.898 24.5307 227.655 25.1137 227.551 25.7939C227.45 26.4741 227.537 26.9808 227.821 27.3139C228.002 27.5187 228.259 27.6228 228.592 27.6228C228.949 27.6228 229.327 27.5256 229.727 27.3347C230.126 27.1439 230.497 26.8975 230.844 26.6025C231.191 26.3075 231.486 25.9744 231.729 25.603C231.972 25.2317 232.121 24.8778 232.173 24.5446C232.249 24.0831 232.159 23.7117 231.902 23.4272C231.569 23.1183 231.156 22.9656 230.67 22.9656C230.233 22.9656 229.81 23.0767 229.4 23.2918C228.991 23.5105 228.616 23.7603 228.283 24.0414Z" fill="#A98417" stroke="#A98417" stroke-width="2" stroke-miterlimit="10"/>
<path d="M341.203 38.7465C341.318 39.3815 341.089 39.7563 340.509 39.8708C340.45 39.8708 339.815 40.0166 338.604 40.3046C337.393 40.5927 335.748 40.9813 333.669 41.4741C331.591 41.9634 329.127 42.5707 326.267 43.2926C323.411 44.0144 320.309 44.8368 316.96 45.7599C315.114 50.4344 312.834 55.0812 310.12 59.6967C307.406 64.3122 304.435 68.6396 301.205 72.6825C297.97 76.722 294.566 80.3137 290.991 83.4578C287.414 86.6019 283.808 89.0693 280.171 90.86C278.207 91.8421 276.104 92.779 273.852 93.6744C271.599 94.5697 269.278 95.3609 266.883 96.055C264.489 96.7491 262.091 97.2939 259.7 97.6999C257.305 98.1025 254.984 98.3072 252.731 98.3072C250.653 98.3072 248.647 98.1059 246.714 97.6999C244.781 97.2939 243.035 96.6311 241.477 95.708C239.919 94.7849 238.576 93.5425 237.452 91.9843C236.327 90.4262 235.56 88.521 235.158 86.2722C234.87 83.9645 235.491 81.6845 237.018 79.4323C238.548 77.18 240.742 74.959 243.598 72.7693C246.454 70.5761 249.872 68.4418 253.856 66.3631C257.84 64.2844 262.136 62.2959 266.755 60.3907L293.157 14.0796C293.271 13.8505 293.459 13.7048 293.719 13.6458C293.979 13.5902 294.222 13.618 294.455 13.7325C294.975 14.0206 295.09 14.4266 294.802 14.9437L269.528 59.1761C273.279 57.6769 277.145 56.2194 281.125 54.8035C285.106 53.3911 289.09 52.062 293.07 50.8231C297.054 49.5842 300.948 48.4008 304.755 47.273C308.565 46.1486 312.198 45.1249 315.662 44.2018C316.814 41.0299 317.741 37.9136 318.431 34.8528C319.125 31.7954 319.528 28.8526 319.642 26.0243C319.93 16.3873 316.554 9.60634 309.516 5.68143C307.496 4.69934 305.449 3.99139 303.37 3.56107C301.291 3.12729 299.185 2.91213 297.051 2.91213C294.743 2.91213 292.449 3.14464 290.169 3.60619C287.889 4.06774 285.668 4.68893 283.503 5.46628C281.337 6.24709 279.262 7.15631 277.27 8.19393C275.278 9.23155 273.418 10.3282 271.686 11.4838C269.378 13.0419 267.286 14.7285 265.412 16.5469C263.534 18.3654 261.949 20.1838 260.651 21.9988C259.353 23.8172 258.371 25.6079 257.708 27.3673C257.045 29.1268 256.767 30.7301 256.885 32.1702C257.173 34.884 258.759 36.876 261.647 38.1426C262.167 38.3161 262.309 38.7187 262.08 39.3538C261.966 39.5863 261.792 39.7424 261.56 39.8292C261.327 39.9159 261.098 39.9021 260.866 39.7841C257.288 38.2259 255.355 35.7447 255.067 32.3403C254.893 30.6676 255.154 28.8943 255.848 27.0168C256.542 25.1429 257.562 23.2238 258.919 21.2596C260.276 19.2989 261.949 17.352 263.94 15.4156C265.932 13.4827 268.167 11.6816 270.649 10.0054C274.976 7.00361 279.362 4.75486 283.804 3.25222C288.246 1.75305 292.574 1 296.79 1C301.638 1 306.167 2.00985 310.38 4.02957C314.19 6.1638 317.015 9.09274 318.861 12.8164C320.708 16.54 321.575 20.9681 321.457 26.1042C321.343 28.8179 320.982 31.6462 320.375 34.589C319.767 37.5318 318.889 40.5337 317.734 43.591C320.791 42.7824 323.619 42.0641 326.215 41.4255C328.811 40.7905 331.077 40.2283 333.01 39.739C334.943 39.2496 336.529 38.861 337.771 38.5695C339.01 38.2814 339.777 38.1079 340.065 38.0489C340.7 37.9344 341.075 38.1634 341.189 38.743L341.203 38.7465ZM279.31 89.2116C282.774 87.5354 286.237 85.1999 289.697 82.2016C293.16 79.1998 296.447 75.7815 299.563 71.9434C302.679 68.1052 305.549 63.9929 308.176 59.6099C310.8 55.2234 313.011 50.8092 314.798 46.3672C311.275 47.3493 307.555 48.4147 303.63 49.5703C299.705 50.7259 295.739 51.951 291.727 53.2488C287.716 54.5467 283.707 55.9036 279.696 57.316C275.684 58.7319 271.804 60.186 268.053 61.6886L254.116 86.1855C253.943 86.5325 253.655 86.706 253.252 86.706C253.193 86.706 253.051 86.647 252.818 86.5325C252.298 86.2445 252.183 85.8384 252.471 85.3214L265.283 62.9032C261.13 64.6904 257.26 66.5227 253.686 68.4002C250.108 70.2741 247.037 72.1932 244.465 74.1574C241.897 76.1181 239.936 78.0962 238.58 80.0881C237.223 82.0801 236.692 84.0547 236.98 86.0189C237.327 88.0386 238.003 89.7113 239.013 91.0404C240.023 92.3661 241.234 93.4349 242.65 94.2435C244.066 95.0521 245.635 95.6282 247.366 95.9752C249.098 96.3222 250.857 96.4957 252.648 96.4957C254.727 96.4957 256.903 96.3083 259.183 95.9335C261.463 95.5588 263.757 95.0382 266.064 94.3754C268.372 93.7126 270.652 92.9491 272.901 92.0815C275.153 91.2174 277.287 90.2631 279.307 89.2254L279.31 89.2116Z" fill="#A98417" stroke="#A98417" stroke-width="2" stroke-miterlimit="10"/>
<path d="M405.779 17.1056C406.008 17.2202 406.139 17.4076 406.167 17.6678C406.195 17.9281 406.153 18.1745 406.039 18.4035C404.828 20.4233 403.197 21.8669 401.149 22.731C399.102 23.5951 396.777 24.0289 394.181 24.0289C392.911 24.0289 391.599 23.9421 390.242 23.7686C388.885 23.5951 387.487 23.3661 386.043 23.0746C385.467 23.7686 384.887 24.4904 384.311 25.24C383.735 25.9896 383.128 26.7704 382.493 27.579C380.359 31.1014 378.151 34.7799 375.871 38.6146C373.591 42.4527 371.398 46.2909 369.292 50.1256C367.185 53.9637 365.179 57.7151 363.274 61.3797C361.369 65.0444 359.738 68.4175 358.385 71.5061C357.028 74.5912 355.962 77.305 355.182 79.6439C354.401 81.9795 354.068 83.784 354.186 85.0541C354.186 85.1686 354.213 85.3283 354.272 85.5296C354.328 85.7308 354.415 85.8627 354.533 85.9183C355.168 86.0328 355.369 86.4076 355.14 87.0426C355.081 87.3307 354.939 87.5042 354.706 87.5632C354.474 87.6187 354.245 87.6499 354.012 87.6499C353.377 87.4764 352.943 87.1016 352.714 86.5256C352.482 85.9495 352.367 85.3144 352.367 84.6203C352.367 83.9263 352.44 83.2357 352.582 82.5416C352.725 81.8476 352.856 81.3305 352.971 80.9835C353.492 79.0193 354.428 76.4513 355.785 73.2794C357.142 70.1041 358.784 66.5852 360.72 62.7193C362.653 58.8534 364.773 54.7688 367.081 50.4691C369.389 46.1694 371.756 41.8871 374.178 37.6151C371.926 40.2699 369.705 42.7963 367.512 45.1908C365.318 47.5853 363.24 49.7057 361.279 51.5518C359.315 53.3981 357.555 54.8695 355.997 55.9661C354.439 57.0627 353.169 57.611 352.187 57.611C351.84 57.611 351.579 57.5832 351.406 57.5242C350.368 57.0037 349.674 56.1986 349.327 55.102C348.921 53.8908 348.921 52.4194 349.327 50.6877C349.73 48.9561 350.25 47.2556 350.885 45.5795C349.442 47.3701 347.825 49.2719 346.037 51.2916C344.247 53.3113 342.446 55.1887 340.627 56.9169C338.809 58.6486 337.077 60.12 335.432 61.3312C333.787 62.5423 332.361 63.2051 331.146 63.3231C330.685 63.3231 330.282 63.2919 329.935 63.2363C329.588 63.1774 329.241 63.0038 328.897 62.7158C328.262 62.0807 327.902 61.2444 327.815 60.2068C327.728 59.1692 327.815 58.0725 328.075 56.9169C328.335 55.7648 328.696 54.6231 329.158 53.4987C329.619 52.3743 330.081 51.3783 330.542 50.5108C331.525 48.6056 332.75 46.572 334.221 44.4065C335.692 42.241 337.282 40.2803 338.982 38.5209C340.683 36.7614 342.414 35.3317 344.177 34.2351C345.937 33.1384 347.568 32.7359 349.067 33.0239C351.434 33.4855 352.964 35.5329 353.655 39.1698C353.884 38.9408 354.071 38.7256 354.217 38.5209C354.359 38.3196 354.519 38.101 354.692 37.8719C355.039 37.4104 355.442 37.3514 355.903 37.6984C356.365 37.9865 356.452 38.3925 356.164 38.9095C355.702 39.6591 355.126 40.728 354.432 42.1126C353.738 43.4973 353.103 44.9548 352.527 46.4852C351.951 48.0156 351.5 49.5148 351.184 50.9862C350.864 52.4576 350.851 53.6549 351.142 54.578C351.316 55.213 351.663 55.6156 352.18 55.7891H352.527C352.641 55.7336 352.815 55.6746 353.047 55.6156C353.276 55.56 353.537 55.4421 353.828 55.2685C355.213 54.46 356.931 53.1204 358.978 51.243C361.026 49.369 363.219 47.1619 365.558 44.6217C367.897 42.0814 370.319 39.3121 372.828 36.3103C375.337 33.312 377.804 30.3101 380.23 27.3083C380.751 26.4998 381.254 25.6946 381.747 24.8861C382.236 24.0775 382.743 23.2724 383.26 22.4638C380.952 21.8877 378.599 21.2388 376.205 20.517C373.81 19.7951 371.402 19.0594 368.976 18.3098C364.704 16.9842 360.522 15.7557 356.424 14.6313C352.325 13.5069 348.661 12.9448 345.43 12.9448C343.525 12.9448 341.838 13.1911 340.367 13.6805C338.895 14.1698 337.726 15.0512 336.862 16.3214C336.515 16.7829 336.081 16.8697 335.564 16.5816C335.102 16.2346 335.016 15.8043 335.304 15.2837C336.459 13.7256 337.886 12.629 339.589 11.9939C341.29 11.3588 343.237 11.043 345.433 11.043C348.779 11.043 352.516 11.6052 356.643 12.7296C360.769 13.854 365.082 15.1415 369.583 16.5816C372.065 17.3902 374.532 18.1537 376.985 18.8755C379.439 19.5973 381.847 20.2463 384.214 20.8223C387.157 16.1478 389.78 12.2229 392.092 9.05108C394.399 5.87922 396.131 3.88727 397.287 3.07869C397.575 2.90518 397.863 2.81842 398.151 2.81842C398.206 2.87742 398.293 2.90518 398.411 2.90518L398.585 3.07869C398.758 3.25221 398.887 3.4396 398.973 3.64088C399.06 3.84216 398.987 4.21695 398.758 4.76525C398.526 5.31356 398.109 6.10827 397.502 7.14589C396.895 8.18351 395.958 9.59939 394.687 11.3866C393.993 12.4242 393.001 13.8089 391.703 15.5405C390.405 17.2722 388.92 19.2329 387.244 21.4262C388.455 21.6587 389.638 21.8461 390.794 21.9884C391.946 22.1341 393.074 22.207 394.17 22.207C396.478 22.207 398.526 21.8461 400.316 21.1243C402.103 20.4024 403.488 19.1774 404.47 17.4457C404.585 17.2167 404.772 17.0709 405.032 17.0119C405.293 16.9564 405.539 16.9842 405.768 17.0987L405.779 17.1056ZM330.99 61.5116C332.087 61.3971 333.53 60.6163 335.318 59.1726C337.108 57.7325 338.996 55.9834 340.988 53.9359C342.98 51.8885 344.972 49.7091 346.96 47.4014C348.952 45.0936 350.694 43.0149 352.197 41.1687C352.197 41.1132 352.183 41.0681 352.155 41.0403C352.124 41.0125 352.11 40.9674 352.11 40.9119C352.051 40.2768 351.937 39.6279 351.763 38.9651C351.59 38.3022 351.375 37.6811 351.114 37.105C350.854 36.5289 350.538 36.0223 350.163 35.5919C349.789 35.1582 349.313 34.9152 348.737 34.8562C347.179 34.8562 345.562 35.4913 343.889 36.7614C342.213 38.0316 340.613 39.5446 339.086 41.3041C337.559 43.0635 336.185 44.8819 334.974 46.7559C333.763 48.6333 332.84 50.1741 332.205 51.3853C330.706 54.3281 329.866 56.6081 329.696 58.2252C329.522 59.8424 329.668 60.88 330.129 61.3416C330.244 61.4596 330.535 61.5151 330.994 61.5151L330.99 61.5116Z" fill="#A98417" stroke="#A98417" stroke-width="2" stroke-miterlimit="10"/>
<path d="M418.154 38.92C418.328 39.0935 418.428 39.3087 418.456 39.5689C418.484 39.8292 418.414 40.0444 418.241 40.2179C417.779 40.7384 416.811 41.7622 415.34 43.2891C413.868 44.8195 412.109 46.5928 410.061 48.6125C408.014 50.6322 405.734 52.7387 403.221 54.9319C400.712 57.1252 398.2 59.1449 395.691 60.9911C393.182 62.8373 390.742 64.3677 388.375 65.5788C386.009 66.79 383.933 67.3973 382.143 67.3973C380.873 67.3973 379.835 67.078 379.026 66.4464C377.586 65.1173 376.774 63.3752 376.604 61.2097C376.431 59.0443 376.677 56.7816 377.34 54.4149C378.003 52.0481 378.985 49.7126 380.283 47.4049C381.581 45.0971 382.979 43.1052 384.482 41.4325C385.578 40.2213 386.904 39.0831 388.462 38.0142C390.02 36.9454 391.634 36.4144 393.31 36.4144C394.809 36.4144 396.166 36.935 397.377 37.9726C398.415 39.1837 398.79 40.5684 398.502 42.1265C398.328 43.1086 397.908 44.1046 397.245 45.111C396.583 46.1209 395.788 47.0301 394.865 47.8387C393.942 48.6472 392.932 49.2962 391.835 49.7855C390.739 50.2748 389.67 50.5212 388.632 50.5212C387.768 50.5212 387.088 50.365 386.599 50.0458C386.109 49.73 385.721 49.4246 385.429 49.1366C384.968 48.5015 384.666 47.7658 384.52 46.9294C384.378 46.0931 384.364 45.2116 384.478 44.2885C383.153 46.0202 381.997 47.8977 381.015 49.9139C380.033 51.9336 379.314 53.9117 378.849 55.8446C378.388 57.7776 378.242 59.5648 378.416 61.2097C378.589 62.8547 379.196 64.1387 380.234 65.0618C380.869 65.5233 381.591 65.7558 382.399 65.7558C383.729 65.7558 385.328 65.2804 387.202 64.3295C389.076 63.3787 391.1 62.1363 393.262 60.6059C395.427 59.079 397.634 57.3334 399.883 55.3692C402.135 53.4085 404.311 51.4443 406.417 49.4836C408.524 47.5229 410.485 45.6177 412.303 43.7715C414.122 41.9253 415.635 40.3393 416.846 39.0102C417.019 38.7812 417.234 38.6632 417.495 38.6632C417.755 38.6632 417.97 38.7499 418.144 38.9235L418.154 38.92ZM387.945 40.6517C387.081 41.7483 386.529 43.0635 386.3 44.5905C386.071 46.1209 386.272 47.2591 386.907 48.0087C387.31 48.4703 387.89 48.7028 388.639 48.7028C389.448 48.7028 390.298 48.4876 391.193 48.0538C392.089 47.62 392.925 47.0717 393.702 46.4089C394.483 45.7461 395.146 44.9965 395.694 44.1567C396.243 43.3203 396.572 42.5256 396.69 41.776C396.864 40.7384 396.659 39.9021 396.083 39.267C395.333 38.573 394.407 38.2294 393.314 38.2294C392.332 38.2294 391.381 38.4758 390.458 38.9651C389.534 39.4544 388.698 40.0201 387.949 40.6517H387.945Z" fill="#A98417" stroke="#A98417" stroke-width="2" stroke-miterlimit="10"/>
<path d="M93.3232 37.6151C93.4377 37.8477 93.4654 38.0906 93.4099 38.3508C93.3509 38.6111 93.2086 38.7985 92.9761 38.913C85.1263 43.7611 77.0613 47.9011 68.7812 51.3332C60.5011 54.7688 52.4361 57.9268 44.5863 60.8106C46.3179 62.3688 47.9039 63.9547 49.3475 65.5719C50.7912 67.1856 51.9294 68.9034 52.7658 70.7218C53.6021 72.5403 54.0637 74.4454 54.1504 76.4339C54.2372 78.4259 53.7617 80.574 52.7241 82.8818C51.6865 85.304 50.0242 87.4244 47.7477 89.2428C45.4677 91.0612 42.8858 92.5743 40.002 93.7854C37.1147 94.9966 34.0157 95.9058 30.6981 96.5131C27.3805 97.1204 24.1635 97.4223 21.0472 97.4223C19.5446 97.4223 17.8303 97.3217 15.8973 97.1204C13.9643 96.9191 12.0869 96.527 10.2719 95.9509C8.4535 95.3748 6.80858 94.5663 5.33717 93.5286C3.86576 92.491 2.84203 91.1341 2.26596 89.4614C1.11382 86.1126 1.32897 83.1143 2.9149 80.4595C4.5043 77.8047 7.10008 75.3512 10.7057 73.1024C14.3148 70.8502 18.7117 68.7021 23.9067 66.6546C29.0983 64.6071 34.6959 62.4833 40.6995 60.2936L41.0466 60.12C40.1235 59.3115 39.2004 58.5619 38.2773 57.8678C36.025 55.9626 33.804 54.0297 31.6108 52.069C29.4176 50.1082 27.5436 48.0156 25.9855 45.7946C24.4273 43.5737 23.3029 41.193 22.6089 38.6528C21.9148 36.1125 21.9148 33.3432 22.6089 30.3414C23.532 27.8601 25.045 25.4066 27.155 22.9844C29.2614 20.5621 31.7288 18.2682 34.5571 16.1027C37.3854 13.9373 40.4705 11.9349 43.8193 10.0852C47.1647 8.23905 50.5725 6.63577 54.0324 5.28235C57.4958 3.92546 60.8828 2.87396 64.2039 2.12438C67.5215 1.37479 70.5372 1 73.251 1C74.9826 1 76.6276 1.17352 78.1857 1.52055C79.7439 1.86758 81.1563 2.47141 82.4264 3.33898C86.2368 6.2818 88.024 9.83192 87.795 13.9859C87.6215 16.2381 86.8545 18.5458 85.5011 20.9126C84.1442 23.2793 82.4264 25.5593 80.3512 27.7491C78.2725 29.9423 75.9647 32.0037 73.4279 33.9366C70.8877 35.8696 68.3474 37.5284 65.8106 38.913C65.2901 39.2011 64.8875 39.0866 64.5995 38.566C64.485 38.337 64.4537 38.1045 64.5127 37.8719C64.5683 37.6429 64.714 37.4694 64.9465 37.3514C66.9662 36.1993 69.1733 34.7556 71.5679 33.0239C73.9624 31.2923 76.1972 29.3871 78.2759 27.3118C80.3547 25.2366 82.1141 23.026 83.5577 20.6905C85.0014 18.355 85.81 16.0611 85.98 13.8089C86.1535 10.231 84.5954 7.26042 81.3055 4.89368C79.3413 3.56802 76.5998 2.90172 73.0809 2.90172C70.4851 2.90172 67.5978 3.26264 64.426 3.98446C61.2507 4.70628 58.0059 5.71614 54.6883 7.01403C51.3707 8.31192 48.0947 9.84233 44.8639 11.6018C41.633 13.3612 38.6451 15.2803 35.9036 17.359C33.162 19.4377 30.7675 21.6171 28.7201 23.8936C26.6726 26.1736 25.2151 28.4952 24.3475 30.8619C23.7124 33.5757 23.7263 36.0986 24.3891 38.4376C25.0519 40.7731 26.1486 42.9698 27.679 45.0173C29.2059 47.0648 31.0105 49.029 33.0892 50.9029C35.1679 52.7804 37.3021 54.6127 39.4953 56.3999C40.1304 56.9204 40.7342 57.4271 41.3138 57.9164C41.8898 58.4057 42.4659 58.9124 43.0455 59.4295C46.9704 57.9858 50.9959 56.4728 55.1221 54.8868C59.2483 53.3009 63.3884 51.6143 67.5423 49.8237C71.6963 48.0365 75.8363 46.1174 79.9625 44.0664C84.0887 42.019 88.1142 39.7806 92.0392 37.3583C92.5597 37.0703 92.99 37.1571 93.337 37.6186L93.3232 37.6151ZM50.9959 82.1946C51.978 80.1159 52.4083 78.1552 52.2938 76.309C52.1793 74.4628 51.7004 72.686 50.8675 70.9856C50.0312 69.2816 48.8894 67.6541 47.4493 66.0959C46.0056 64.5377 44.4197 63.0073 42.688 61.5082C42.4555 61.6227 42.2403 61.7094 42.0391 61.7684C41.8378 61.8274 41.5914 61.9107 41.3034 62.0287C35.2997 64.2219 29.7924 66.2972 24.7709 68.2614C19.7493 70.2221 15.5225 72.2418 12.0904 74.3205C8.65825 76.3992 6.19087 78.6063 4.68823 80.9419C3.18906 83.2808 2.95655 85.9183 3.99417 88.8611C4.68823 90.8218 6.38867 92.3938 9.10245 93.5772C11.8162 94.7606 15.2483 95.4373 19.4023 95.6108C22.5186 95.7253 25.7217 95.5102 29.0116 94.9619C32.3014 94.4136 35.4177 93.5772 38.3605 92.4528C41.3034 91.3285 43.9026 89.8987 46.1514 88.167C48.4036 86.4353 50.0173 84.4434 50.9994 82.1946H50.9959Z" fill="#A98417" stroke="#A98417" stroke-width="2" stroke-miterlimit="10"/>
<path d="M126.996 37.7019C127.398 38.108 127.429 38.5383 127.082 38.9998C126.794 39.3469 126.201 40.0374 125.309 41.0785C124.414 42.1161 123.317 43.3134 122.019 44.6703C120.721 46.0272 119.305 47.4535 117.778 48.9561C116.248 50.4588 114.69 51.8434 113.104 53.1101C111.515 54.3802 109.974 55.4178 108.471 56.2264C106.968 57.035 105.615 57.4375 104.404 57.4375C102.613 57.4375 101.43 56.5422 100.854 54.755C100.448 53.5439 100.434 52.0724 100.812 50.3408C101.187 48.6091 101.721 46.9086 102.412 45.2325C100.968 47.0232 99.3407 48.9249 97.5223 50.9446C95.7039 52.9643 93.8854 54.8383 92.0705 56.57C90.252 58.3016 88.5203 59.773 86.8754 60.9842C85.2305 62.1953 83.832 62.8581 82.6764 62.9761H82.2426C81.434 62.9761 80.8302 62.7749 80.4241 62.3688C79.7301 61.7338 79.3553 60.9113 79.2997 59.9014C79.2442 58.8916 79.3414 57.8123 79.6017 56.6567C79.8619 55.5046 80.2229 54.3628 80.6844 53.2385C81.146 52.1141 81.6075 51.1181 82.069 50.254C83.0511 48.3488 84.2762 46.3013 85.7476 44.1081C87.219 41.9149 88.8084 39.9403 90.5088 38.1774C92.2093 36.4179 93.9271 34.9882 95.6587 33.8915C97.3904 32.7949 99.0041 32.3924 100.507 32.6804C102.874 33.0864 104.432 35.1617 105.181 38.9131C105.355 38.625 105.528 38.3786 105.702 38.1774C105.875 37.9761 106.018 37.7887 106.136 37.6152C106.483 37.1536 106.916 37.0669 107.433 37.3549C107.895 37.7019 107.982 38.1045 107.694 38.566C107.232 39.3156 106.656 40.3845 105.962 41.7691C105.268 43.1538 104.619 44.6113 104.015 46.1417C103.408 47.6721 102.946 49.1713 102.631 50.6427C102.311 52.1141 102.297 53.3113 102.589 54.2344C102.762 54.8105 103.109 55.2443 103.627 55.5323C104.609 55.9384 106.007 55.6191 107.826 54.5815C109.644 53.5439 111.605 52.1002 113.711 50.254C115.818 48.4078 117.938 46.3569 120.072 44.1081C122.207 41.8559 124.084 39.7529 125.698 37.7887C126.045 37.3271 126.475 37.2994 126.996 37.7019ZM82.4161 61.1612C83.5127 61.0466 84.9702 60.2658 86.7887 58.8222C88.6071 57.3785 90.5123 55.633 92.5008 53.5855C94.4927 51.538 96.4673 49.3587 98.4315 47.0509C100.392 44.7432 102.124 42.6679 103.627 40.8183V40.558C103.453 39.2879 103.12 38.0177 102.631 36.7511C102.141 35.4809 101.319 34.7313 100.163 34.4988C98.605 34.4988 96.9879 35.12 95.3152 36.3589C93.639 37.6013 92.0392 39.1005 90.5123 40.8599C88.9854 42.6193 87.6285 44.4378 86.4451 46.3152C85.2617 48.1926 84.356 49.7647 83.7174 51.0314C82.2183 54.0332 81.3785 56.327 81.2084 57.913C81.0349 59.5024 81.1807 60.5226 81.6422 60.9842C81.7012 61.0432 81.7706 61.0987 81.8574 61.1577C81.9441 61.2167 82.1315 61.2167 82.4196 61.1577L82.4161 61.1612Z" fill="#A98417" stroke="#A98417" stroke-width="2" stroke-miterlimit="10"/>
<path d="M168.459 29.9111C168.861 30.3171 168.834 30.7474 168.372 31.209C167.851 31.497 167.421 31.4415 167.074 31.0354C164.881 28.4397 162.341 27.2563 159.457 27.4853C157.323 27.6033 155.056 28.4258 152.662 29.9527C150.267 31.4831 147.869 33.43 145.478 35.7967C143.084 38.1634 140.717 40.8321 138.378 43.8027C136.043 46.7767 133.818 49.7473 131.715 52.7179C129.609 55.6919 127.676 58.5619 125.916 61.3312C124.157 64.1005 122.64 66.4672 121.374 68.4314C120.739 69.528 120.149 70.5101 119.597 71.3742C119.049 72.2383 118.573 72.9601 118.171 73.5397C117.997 73.8277 117.737 73.9735 117.39 73.9735C117.334 73.9145 117.275 73.8867 117.216 73.8867C116.869 73.8867 116.64 73.6854 116.522 73.2794C116.002 71.3742 115.818 69.1949 115.96 66.7448C116.106 64.2913 116.449 61.8101 116.998 59.301C117.546 56.792 118.209 54.3246 118.99 51.8989C119.77 49.4766 120.534 47.2973 121.283 45.3643C122.033 43.4314 122.682 41.8454 123.23 40.6031C123.779 39.3642 124.081 38.684 124.14 38.5695C124.313 37.9934 124.716 37.8199 125.351 38.0489C125.812 38.337 125.958 38.7707 125.784 39.3468C124.861 41.4255 124.067 43.2995 123.404 44.9722C122.741 46.6483 122.047 48.5639 121.325 50.7294C120.603 52.8949 119.954 55.1297 119.378 57.4375C118.802 59.7452 118.355 62.0391 118.039 64.3191C117.723 66.5991 117.678 68.6917 117.907 70.5934C119.118 68.5147 120.662 65.9918 122.536 63.0177C124.41 60.0472 126.475 56.9308 128.724 53.6687C130.976 50.4101 133.371 47.1481 135.907 43.886C138.448 40.6274 141.043 37.6672 143.698 35.0124C146.353 32.3576 149.008 30.1783 151.662 28.4778C154.317 26.7774 156.854 25.8369 159.28 25.6634C162.917 25.3754 165.974 26.7878 168.455 29.9041L168.459 29.9111Z" fill="#A98417" stroke="#A98417" stroke-width="2" stroke-miterlimit="10"/>
<path d="M220.051 58.6486C220.339 59.2837 220.426 59.773 220.312 60.12C220.197 60.4671 220.024 60.7273 219.791 60.9009C219.271 61.3069 218.694 61.3069 218.059 60.9009C217.539 60.6128 217.091 60.1096 216.72 59.3878C216.345 58.666 216.244 57.8435 216.418 56.9204C215.033 55.6503 213.215 54.755 210.963 54.2379C208.71 53.7173 206.201 53.4571 203.432 53.4571C199.854 53.4571 195.974 53.8041 191.789 54.4947C187.604 55.1887 183.481 56.0841 179.411 57.1772C175.343 58.2738 171.505 59.4572 167.9 60.7273C164.294 61.9975 161.247 63.1808 158.766 64.2775C157.437 64.8535 156.038 65.3741 154.567 65.8356C153.095 66.2972 151.666 66.5297 150.281 66.5297C149.472 66.5297 148.695 66.429 147.942 66.2278C147.192 66.0265 146.502 65.6656 145.863 65.145C144.538 63.9894 143.743 62.4486 143.483 60.5157C143.222 58.5827 143.368 56.504 143.916 54.283C144.465 52.062 145.343 49.8098 146.557 47.5298C147.768 45.2498 149.212 43.1884 150.885 41.3422C154.289 37.5319 157.52 35.6301 160.581 35.6301C162.195 35.6301 163.61 36.1507 164.822 37.1883C165.859 38.3994 166.234 39.7841 165.946 41.3422C165.772 42.3799 165.353 43.3897 164.69 44.3718C164.027 45.3539 163.232 46.2492 162.309 47.0544C161.386 47.8629 160.362 48.5119 159.234 49.0012C158.11 49.4905 157.027 49.7369 155.99 49.7369C155.181 49.7369 154.532 49.5946 154.043 49.3031C153.553 49.0151 153.165 48.727 152.873 48.439C152.297 47.7449 151.95 46.8947 151.836 45.8849C151.721 44.875 151.78 43.8513 152.009 42.8136C150.566 44.4898 149.295 46.3499 148.199 48.3974C147.102 50.4448 146.294 52.4507 145.777 54.4149C145.256 56.3791 145.082 58.194 145.256 59.8702C145.43 61.5463 146.037 62.8408 147.074 63.7639C147.883 64.3989 148.921 64.7147 150.191 64.7147C152.155 64.7147 154.751 63.9929 157.982 62.5492C160.289 61.5116 163.232 60.3734 166.81 59.131C170.388 57.8921 174.226 56.7087 178.321 55.5809C182.419 54.4565 186.632 53.5195 190.96 52.7665C195.287 52.0169 199.355 51.6421 203.165 51.6421C206.975 51.6421 210.636 52.1626 213.638 53.2003C216.64 54.2379 218.774 56.0563 220.044 58.6521L220.051 58.6486ZM155.389 39.7771C154.525 40.8738 153.973 42.1994 153.744 43.761C153.512 45.3192 153.713 46.4748 154.352 47.2244C154.754 47.686 155.334 47.9185 156.083 47.9185C156.892 47.9185 157.742 47.7033 158.637 47.2695C159.533 46.8357 160.369 46.2874 161.146 45.6246C161.927 44.9618 162.587 44.2122 163.138 43.3724C163.687 42.536 164.016 41.7413 164.134 40.9917C164.308 40.0096 164.103 39.1733 163.527 38.4827C162.604 37.7331 161.622 37.3583 160.584 37.3583C159.72 37.3583 158.867 37.5596 158.03 37.9656C157.194 38.3717 156.371 38.861 155.563 39.437C155.563 39.5516 155.504 39.6696 155.389 39.7841V39.7771Z" fill="#A98417" stroke="#A98417" stroke-width="2" stroke-miterlimit="10"/>
</svg>
